<?xml version="1.0" standalone="no"?><!DOCTYPE svg PUBLIC "-//W3C//DTD SVG 1.1//EN" "http://www.w3.org/Graphics/SVG/1.1/DTD/svg11.dtd"><svg width="100%" height="100%" viewBox="0 0 749 618" version="1.1" xmlns="http://www.w3.org/2000/svg" xmlns:xlink="http://www.w3.org/1999/xlink" xml:space="preserve" style="fill-rule:evenodd;clip-rule:evenodd;stroke-linecap:round;stroke-linejoin:round;stroke-miterlimit:1.41421;"><g><path d="M730.706,344.136c0,-12.981 -10.539,-23.52 -23.52,-23.52l-546.196,0c-12.981,0 -23.52,10.539 -23.52,23.52l0,173.492c0,12.981 10.539,23.52 23.52,23.52l479.531,0l90.185,58.764l0,-255.776Z" style="fill:#e74c3c;stroke-width:20px;stroke:#000;"/><path d="M18.076,41.164c0,-12.981 10.539,-23.52 23.521,-23.52l576.195,0c12.981,0 23.52,10.539 23.52,23.52l0,173.492c0,12.981 -10.539,23.52 -23.52,23.52l-509.531,0l-90.185,58.764l0,-255.776Z" style="fill:#3498db;stroke-width:20px;stroke:#000;"/></g></svg>