<?xml version="1.0" standalone="no"?><!DOCTYPE svg PUBLIC "-//W3C//DTD SVG 1.1//EN" "http://www.w3.org/Graphics/SVG/1.1/DTD/svg11.dtd"><svg width="100%" height="100%" viewBox="0 0 666 500" version="1.1" xmlns="http://www.w3.org/2000/svg" xmlns:xlink="http://www.w3.org/1999/xlink" xml:space="preserve" style="fill-rule:evenodd;clip-rule:evenodd;stroke-linejoin:round;stroke-miterlimit:1.41421;"><g id="everything"><g id="narcissistic poster"><rect x="400.223" y="5.326" width="123.3" height="146.866" style="fill:#0b0832;stroke-width:5px;stroke:#0b0832;"/><g><g><path d="M434.396,107.322c-0.103,-0.119 -1.538,-6.411 1.187,-6.408c9.8,0.013 40.111,0.221 49.814,0.802c2.682,0.161 1.111,7.043 0.988,7.169c-5.625,5.761 -46.309,4.992 -51.989,-1.563Z" style="fill:#bfbfbf;stroke-width:2.59px;stroke-linecap:round;stroke:#000;"/><path d="M436.57,106.005c0,0 1.91,1.937 11.876,2.892" style="fill:none;stroke-width:0.52px;stroke-linecap:round;stroke:#fff;"/></g><g><path d="M460.437,44.755c17.091,0 30.967,13.876 30.967,30.967c0,8.412 0.479,21.974 -4.973,27.557c-5.624,5.76 -46.309,4.992 -51.988,-1.563c-4.708,-5.432 -4.973,-18.249 -4.973,-25.994c0,-17.091 13.876,-30.967 30.967,-30.967Z" style="fill:#fff;stroke-width:2.59px;stroke-linecap:round;stroke:#000;"/><circle cx="460.437" cy="75.722" r="25.994" style="fill:#000;"/><path d="M444.232,65.626c0.665,-2.503 3.452,-5.707 5.248,-6.874" style="fill:none;stroke-width:2.59px;stroke-linecap:round;stroke:#fff;"/></g><g><g><path d="M441.038,54.623c0.855,-1.06 0.688,-2.615 -0.372,-3.47l-3.841,-3.098c-1.06,-0.855 -2.615,-0.689 -3.47,0.371l-7.158,8.875c-0.855,1.06 -0.689,2.615 0.371,3.47l3.842,3.098c1.06,0.855 2.615,0.689 3.47,-0.371l7.158,-8.875Z" style="fill:#fff;stroke-width:2.59px;stroke-linecap:round;stroke:#000;"/><circle cx="431.432" cy="58.586" r="2.185" style="fill:#d3ff65;stroke-width:2.59px;stroke-linecap:round;stroke:#000;"/><circle cx="435.636" cy="53.344" r="2.185" style="fill:#d3ff65;stroke-width:2.59px;stroke-linecap:round;stroke:#000;"/></g><g><path d="M488.269,48.448c-0.802,-1.101 -2.347,-1.342 -3.447,-0.54l-3.987,2.909c-1.1,0.803 -1.342,2.348 -0.539,3.448l6.719,9.211c0.803,1.1 2.348,1.342 3.448,0.539l3.987,-2.908c1.1,-0.803 1.342,-2.348 0.539,-3.448l-6.72,-9.211Z" style="fill:#fff;stroke-width:2.59px;stroke-linecap:round;stroke:#000;"/><path d="M487.5,58.186c0.313,-1.165 1.512,-1.857 2.677,-1.545c1.165,0.312 1.857,1.511 1.545,2.676c-0.312,1.165 -1.511,1.858 -2.676,1.545c-1.165,-0.312 -1.858,-1.511 -1.546,-2.676Z" style="fill:#d3ff65;stroke-width:2.59px;stroke-linecap:round;stroke:#000;"/><path d="M483.525,52.769c0.312,-1.165 1.512,-1.857 2.677,-1.545c1.164,0.312 1.857,1.511 1.545,2.676c-0.312,1.165 -1.512,1.857 -2.677,1.545c-1.165,-0.312 -1.857,-1.511 -1.545,-2.676Z" style="fill:#d3ff65;stroke-width:2.59px;stroke-linecap:round;stroke:#000;"/></g></g></g></g><g id="table"><g><path d="M102.992,477.766l-19.187,0l-3,17.234l25.187,0l-3,-17.234Z" style="fill:#000;stroke-width:5px;stroke-linecap:round;stroke:#000;"/><path d="M102.255,353.748c0,-2.444 -1.984,-4.428 -4.428,-4.428l-8.857,0c-2.444,0 -4.428,1.984 -4.428,4.428l0,124.018c0,2.444 1.984,4.428 4.428,4.428l8.857,0c2.444,0 4.428,-1.984 4.428,-4.428l0,-124.018Z" style="fill:#949494;stroke-width:5px;stroke-linecap:round;stroke:#000;"/><path d="M104.124,241.808c0,-2.96 -2.403,-5.362 -5.363,-5.362l-10.725,0c-2.959,0 -5.362,2.402 -5.362,5.362l0,126.578c0,2.959 2.403,5.362 5.362,5.362l10.725,0c2.96,0 5.363,-2.403 5.363,-5.362l0,-126.578Z" style="fill:#949494;stroke-width:5px;stroke-linecap:round;stroke:#000;"/></g><g><path d="M577.576,477.766l-19.186,0l-3,17.234l25.186,0l-3,-17.234Z" style="fill:#000;stroke-width:5px;stroke-linecap:round;stroke:#000;"/><path d="M576.84,353.748c0,-2.444 -1.984,-4.428 -4.428,-4.428l-8.857,0c-2.444,0 -4.428,1.984 -4.428,4.428l0,124.018c0,2.444 1.984,4.428 4.428,4.428l8.857,0c2.444,0 4.428,-1.984 4.428,-4.428l0,-124.018Z" style="fill:#949494;stroke-width:5px;stroke-linecap:round;stroke:#000;"/><path d="M578.708,241.808c0,-2.96 -2.403,-5.362 -5.362,-5.362l-10.725,0c-2.96,0 -5.363,2.402 -5.363,5.362l0,126.578c0,2.959 2.403,5.362 5.363,5.362l10.725,0c2.959,0 5.362,-2.403 5.362,-5.362l0,-126.578Z" style="fill:#949494;stroke-width:5px;stroke-linecap:round;stroke:#000;"/></g><path d="M660.9,228.699c0,-3.265 -2.651,-5.916 -5.916,-5.916l-644.179,0c-3.265,0 -5.915,2.651 -5.915,5.916l0,11.831c0,3.265 2.65,5.916 5.915,5.916l644.179,0c3.265,0 5.916,-2.651 5.916,-5.916l0,-11.831Z" style="fill:#fff;stroke-width:5px;stroke-linecap:round;stroke:#000;"/></g><g id="monitor"><rect x="256.222" y="201.718" width="12.876" height="8.801" style="fill:#333;stroke-width:9px;stroke:#000;"/><path d="M361.694,68.295c0,-2.739 -2.224,-4.964 -4.964,-4.964l-188.14,0c-2.739,0 -4.964,2.225 -4.964,4.964l0,122.21c0,2.74 2.225,4.964 4.964,4.964l188.14,0c2.74,0 4.964,-2.224 4.964,-4.964l0,-122.21Z" style="fill:#666;stroke-width:9px;stroke:#000;"/><g><rect x="193.645" y="82.217" width="118.101" height="87.426" style="fill:#fff;stroke-width:3px;stroke:#fff;"/><text x="206.878px" y="136.788px" style="font-family:DIN Alternate;font-size:44.166px;font-weight:700;fill:#000;">Hello</text></g><path d="M209.539,216.853c0.021,-0.017 106.262,-0.077 106.242,0c-0.483,1.907 -23.803,3.584 -53.121,3.584c-29.318,0 -54.551,-2.363 -53.121,-3.584Z" style="fill:#333;stroke-width:9px;stroke:#000;"/></g><g id="macbook"><rect x="311.746" y="120.18" width="148.657" height="92.667" style="fill:#304669;stroke-width:7px;stroke:#000;"/><rect x="294.448" y="212.847" width="183.251" height="9.936" style="fill:#a6a6a6;stroke-width:5px;stroke:#000;"/><rect x="369.783" y="212.847" width="32.582" height="2.768" style="fill:#a6a6a6;stroke-width:2.5px;stroke:#000;"/><g id="code"><path d="M357.064,133.72c0,-0.119 -0.096,-0.216 -0.215,-0.216l-34.262,0c-0.118,0 -0.215,0.097 -0.215,0.216l0,0.43c0,0.119 0.097,0.216 0.215,0.216l34.262,0c0.119,0 0.215,-0.097 0.215,-0.216l0,-0.43Z" style="fill:#304669;stroke-width:2px;stroke:#21f400;"/><path d="M371.678,152.899c0,-0.119 -0.096,-0.216 -0.215,-0.216l-38.876,0c-0.118,0 -0.215,0.097 -0.215,0.216l0,0.43c0,0.119 0.097,0.216 0.215,0.216l38.876,0c0.119,0 0.215,-0.097 0.215,-0.216l0,-0.43Z" style="fill:#304669;stroke-width:2px;stroke:#21f400;"/><path d="M373.631,176.869c0,-0.118 -0.096,-0.215 -0.215,-0.215l-30.829,0c-0.118,0 -0.215,0.097 -0.215,0.215l0,0.431c0,0.119 0.097,0.216 0.215,0.216l30.829,0c0.119,0 0.215,-0.097 0.215,-0.216l0,-0.431Z" style="fill:#304669;stroke-width:2px;stroke:#21f400;"/><path d="M339.437,143.305c0,-0.119 -0.097,-0.216 -0.216,-0.216l-16.634,0c-0.118,0 -0.215,0.097 -0.215,0.216l0,0.43c0,0.119 0.097,0.216 0.215,0.216l16.634,0c0.119,0 0.216,-0.097 0.216,-0.216l0,-0.43Z" style="fill:#304669;stroke-width:2px;stroke:#21f400;"/><path d="M361.026,162.484c0,-0.119 -0.096,-0.216 -0.215,-0.216l-38.224,0c-0.118,0 -0.215,0.097 -0.215,0.216l0,0.43c0,0.119 0.097,0.216 0.215,0.216l38.224,0c0.119,0 0.215,-0.097 0.215,-0.216l0,-0.43Z" style="fill:#304669;stroke-width:2px;stroke:#21f400;"/><path d="M365.957,186.454c0,-0.118 -0.097,-0.215 -0.216,-0.215l-43.154,0c-0.118,0 -0.215,0.097 -0.215,0.215l0,0.431c0,0.119 0.097,0.216 0.215,0.216l43.154,0c0.119,0 0.216,-0.097 0.216,-0.216l0,-0.431Z" style="fill:#304669;stroke-width:2px;stroke:#21f400;"/><path d="M371.894,138.489c0,-0.119 -0.097,-0.215 -0.216,-0.215l-49.091,0c-0.118,0 -0.215,0.096 -0.215,0.215l0,0.431c0,0.119 0.097,0.215 0.215,0.215l49.091,0c0.119,0 0.216,-0.096 0.216,-0.215l0,-0.431Z" style="fill:#304669;stroke-width:2px;stroke:#21f400;"/><path d="M377.837,157.668c0,-0.119 -0.096,-0.215 -0.215,-0.215l-45.035,0c-0.118,0 -0.215,0.096 -0.215,0.215l0,0.431c0,0.119 0.097,0.215 0.215,0.215l45.035,0c0.119,0 0.215,-0.096 0.215,-0.215l0,-0.431Z" style="fill:#304669;stroke-width:2px;stroke:#21f400;"/><path d="M380.584,181.639c0,-0.119 -0.096,-0.215 -0.215,-0.215l-37.782,0c-0.118,0 -0.215,0.096 -0.215,0.215l0,0.431c0,0.119 0.097,0.215 0.215,0.215l37.782,0c0.119,0 0.215,-0.096 0.215,-0.215l0,-0.431Z" style="fill:#304669;stroke-width:2px;stroke:#21f400;"/><path d="M389.972,148.074c0,-0.119 -0.097,-0.215 -0.216,-0.215l-57.169,0c-0.118,0 -0.215,0.096 -0.215,0.215l0,0.431c0,0.119 0.097,0.215 0.215,0.215l57.169,0c0.119,0 0.216,-0.096 0.216,-0.215l0,-0.431Z" style="fill:#304669;stroke-width:2px;stroke:#21f400;"/><path d="M389.972,172.045c0,-0.119 -0.097,-0.215 -0.216,-0.215l-57.169,0c-0.118,0 -0.215,0.096 -0.215,0.215l0,0.431c0,0.119 0.097,0.215 0.215,0.215l57.169,0c0.119,0 0.216,-0.096 0.216,-0.215l0,-0.431Z" style="fill:#304669;stroke-width:2px;stroke:#21f400;"/><path d="M352.596,167.253c0,-0.119 -0.096,-0.215 -0.215,-0.215l-29.794,0c-0.118,0 -0.215,0.096 -0.215,0.215l0,0.431c0,0.119 0.097,0.215 0.215,0.215l29.794,0c0.119,0 0.215,-0.096 0.215,-0.215l0,-0.431Z" style="fill:#304669;stroke-width:2px;stroke:#21f400;"/><path d="M373.631,191.224c0,-0.119 -0.096,-0.215 -0.215,-0.215l-50.829,0c-0.118,0 -0.215,0.096 -0.215,0.215l0,0.431c0,0.119 0.097,0.215 0.215,0.215l50.829,0c0.119,0 0.215,-0.096 0.215,-0.215l0,-0.431Z" style="fill:#304669;stroke-width:2px;stroke:#21f400;"/></g></g><g id="cup"><g><path d="M540.894,163.745l-11.29,-0.267l-1.026,43.463l11.289,0.267l1.027,-43.463Z" style="fill:#8e44ad;stroke-width:3px;stroke:#000;"/><path d="M540.496,153.084l-9.991,-0.236l1.024,10.676l7.427,0.175l1.54,-10.615Z" style="fill:#8e44ad;stroke-width:3px;stroke:#000;"/></g><g><path d="M536.258,162.312l-11.013,2.497l9.616,42.399l11.013,-2.498l-9.616,-42.398Z" style="fill:#f1c40f;stroke-width:3px;stroke:#000;"/><path d="M533.27,152.07l-9.747,2.211l3.6,10.102l7.245,-1.643l-1.098,-10.67Z" style="fill:#f1c40f;stroke-width:3px;stroke:#000;"/></g><g><path d="M556.724,164.093l-7.714,-1.124l-6.977,47.884l7.714,1.124l6.977,-47.884Z" style="fill:#b3b3b3;stroke-width:2px;stroke:#000;"/><path d="M548.551,161.667c0.585,-4.013 4.21,-9.816 5.966,-9.459c1.863,0.378 3.604,6.755 3.019,10.768l-1.71,11.737c-2.901,0.629 -5.889,0.261 -8.985,-1.309l1.71,-11.737Z" style="fill:#7bce19;stroke-width:3px;stroke:#000;"/><path d="M554.458,162.351l-2.779,-0.405l-2.37,16.261l2.78,0.405l2.369,-16.261Z" style="fill:#7bce19;stroke-width:2px;stroke:#000;"/></g><g><path d="M551.046,159.947l-7.786,-0.381l-2.362,48.332l7.786,0.381l2.362,-48.332Z" style="fill:#b3b3b3;stroke-width:2px;stroke:#000;"/><path d="M542.678,157.314c0.198,-4.05 3.251,-10.173 5.033,-9.986c1.891,0.198 4.234,6.379 4.036,10.429l-0.579,11.847c-2.827,0.903 -5.837,0.823 -9.069,-0.443l0.579,-11.847Z" style="fill:#e30037;stroke-width:3px;stroke:#000;"/><path d="M548.624,158.43l-2.806,-0.137l-0.802,16.412l2.806,0.137l0.802,-16.412Z" style="fill:#e30037;stroke-width:2px;stroke:#000;"/></g><path id="cup1" d="M559.702,175.497c0.061,-0.523 -0.104,-1.046 -0.454,-1.44c-0.35,-0.393 -0.851,-0.617 -1.377,-0.617c-6.471,0 -26.264,0 -32.835,0c-0.551,0 -1.076,0.231 -1.447,0.638c-0.371,0.406 -0.554,0.95 -0.504,1.498c0.717,7.848 3.204,35.061 3.981,43.564c0.133,1.449 1.348,2.559 2.804,2.559c5.041,0 16.199,0 21.518,0c1.67,0 3.076,-1.252 3.269,-2.911c1.038,-8.906 4.155,-35.653 5.045,-43.291Z" style="fill:#ff2f2f;stroke-width:5px;stroke:#000;"/></g><g id="stack"><g id="book1"><g><path d="M204.441,201.648c0,-0.775 -0.629,-1.404 -1.403,-1.404l-118.395,0c-0.774,0 -1.403,0.629 -1.403,1.404l0,12.682c0,0.775 0.629,1.404 1.403,1.404l118.395,0c0.774,0 1.403,-0.629 1.403,-1.404l0,-12.682Z" style="fill:#fff;stroke-width:3px;stroke:#000;"/><path d="M206.878,221.783l-127.505,0c-2.323,-9.019 -2.633,-18.112 0,-27.314l127.505,0l0,4.976l-123.056,0c-0.855,5.858 -0.782,11.64 0.042,17.362l123.014,0l0,4.976Z" style="fill:#fd001f;stroke-width:3px;stroke:#000;"/></g></g><g id="book2"><path d="M173.461,181.879c0,-1.306 -1.06,-2.366 -2.365,-2.366l-77.512,0c-1.306,0 -2.365,1.06 -2.365,2.366l0,9.21c0,1.306 1.059,2.366 2.365,2.366l77.512,0c1.305,0 2.365,-1.06 2.365,-2.366l0,-9.21Z" style="fill:#e7f9f7;stroke-width:3px;stroke:#000;"/><text x="103.324px" y="189.954px" style="font-family:DIN Alternate;font-size:9.447px;font-weight:700;fill:#000;">1984</text></g></g></g></svg>